<svg xmlns="http://www.w3.org/2000/svg" class="hide"><defs><style>.fill{fill:#3b5998}</style><style>.fill{fill:#3b5998}</style><style>.fill_1{fill:#6cc655}.fill_2{fill:#fff}</style><style>.fill{fill:#6cc655}</style><style>.fill{fill:#df4a32}</style><style>.fill{fill:#00a4de}</style><style>.fill_1{fill:#fff}.fill_2{fill:#008fde}.fill_3{fill:#00a4de}.fill_4{fill:#f9f9f9}</style><style>.fill_1{fill:#00c300}.fill_2{fill:#fff}</style><style>.fill{fill:#00c300}</style><style>.fill_1{fill:#00c300}.fill_2{fill:#fff}</style><style>.fill{fill:#55acee}</style></defs><symbol id="facebook" viewBox="0 0 156 300"><path class="fill" d="M101 300V163h46l7-53h-53V76c0-15.448 4.857-26 27-26h28V2c-4.887-.649-21.497-2-41-2-40.718 0-69 25.336-69 71v39H0v53h46v137h55z"/></symbol><symbol id="facebook_icon" viewBox="0 0 300 300"><path class="fill" d="M283 0H17C7.853 0 0 7.854 0 17v266c0 9.144 7.853 17 17 17h144V183h-40v-44h40v-34c0-38.749 22.432-60 57-60 16.558 0 31.852 1.449 36 2v41h-25c-18.799 0-22 8.891-22 22v29h45l-6 44h-39v117h76c9.144 0 17-7.856 17-17V17c0-9.146-7.856-17-17-17z"/></symbol><symbol id="feedly" viewBox="0 0 340 300"><path class="fill_1" d="M196.34 10.864c-14.521-14.51-38.28-14.51-52.801 0L10.873 143.427c-14.523 14.51-14.523 38.257 0 52.764l94.667 94.598a37.42 37.42 0 0 0 24.638 9.213h79.53c10.361 0 19.744-4.201 26.533-10.981l92.836-92.758c14.521-14.515 14.521-38.262 0-52.769L196.34 10.864z"/><path class="fill_2" d="M192.644 252.985l-13.242 13.231a5.339 5.339 0 0 1-3.788 1.571H164.27a5.332 5.332 0 0 1-3.518-1.317l-13.506-13.497c-2.069-2.062-2.069-5.455 0-7.521l18.925-18.917c2.074-2.073 5.47-2.073 7.532 0l18.941 18.921c2.074 2.066 2.074 5.462 0 7.529zm0-79.346l-52.95 52.908a5.312 5.312 0 0 1-3.78 1.56h-11.349a5.32 5.32 0 0 1-3.518-1.307l-13.505-13.492c-2.07-2.075-2.07-5.46 0-7.533l58.629-58.589c2.074-2.064 5.47-2.064 7.539 0l18.934 18.939c2.074 2.058 2.074 5.439 0 7.514zm0-79.347l-92.65 92.578a5.347 5.347 0 0 1-3.789 1.567H84.861a5.322 5.322 0 0 1-3.512-1.314l-13.512-13.497c-2.069-2.062-2.069-5.455 0-7.516l98.334-98.267c2.074-2.067 5.462-2.067 7.532 0l18.941 18.924c2.074 2.071 2.074 5.459 0 7.525z"/></symbol><symbol id="feedly_a" viewBox="0 0 340 300"><path class="fill" d="M329.077 196.263l-92.836 92.758c-6.789 6.78-16.172 10.981-26.533 10.981h-79.53a37.425 37.425 0 0 1-24.638-9.213l-94.667-94.598c-14.523-14.507-14.523-38.254 0-52.764L143.539 10.864c14.521-14.51 38.28-14.51 52.801 0l132.737 132.63c14.521 14.507 14.521 38.254 0 52.769zM192.644 86.766l-18.941-18.923c-2.07-2.067-5.458-2.067-7.532 0L67.837 166.11c-2.069 2.061-2.069 5.454 0 7.516l13.512 13.497a5.322 5.322 0 0 0 3.512 1.314h11.344a5.347 5.347 0 0 0 3.789-1.567l92.65-92.578c2.074-2.066 2.074-5.454 0-7.526zm0 79.358l-18.934-18.938c-2.069-2.064-5.465-2.064-7.539 0l-58.629 58.589c-2.07 2.073-2.07 5.458 0 7.533l13.505 13.492a5.32 5.32 0 0 0 3.518 1.307h11.349a5.312 5.312 0 0 0 3.78-1.56l52.95-52.908c2.074-2.075 2.074-5.456 0-7.515zm0 79.332l-18.941-18.921c-2.062-2.073-5.458-2.073-7.532 0l-18.925 18.917c-2.069 2.066-2.069 5.459 0 7.521l13.506 13.497a5.332 5.332 0 0 0 3.518 1.317h11.344c1.479 0 2.817-.6 3.788-1.571l13.242-13.231c2.074-2.067 2.074-5.463 0-7.529z"/></symbol><symbol id="gplus" viewBox="0 0 313 300"><path class="fill" d="M312.998 146.98h-42.134v41.27h-24.076v-41.27h-41.131v-.893h-.26v-23.475h41.391V80.545h24.076v42.067h41.131v.21h1.003v24.158zM141.721 14.218c2.456 1.537 5.219 3.78 8.289 6.725 2.945 3.076 5.833 6.856 8.658 11.34 2.701 4.228 5.094 9.224 7.183 14.988 1.717 5.767 2.579 12.492 2.579 20.18-.234 14.095-3.321 25.367-9.264 33.823-2.915 4.102-6.003 7.879-9.264 11.339a367.475 367.475 0 0 1-11.534 10.57c-2.331 2.436-4.485 5.187-6.465 8.263-2.33 3.204-3.496 6.92-3.496 11.147 0 4.101 1.195 7.494 3.586 10.185 2.029 2.565 4.002 4.805 5.916 6.727l13.266 10.953c8.245 6.793 15.475 14.284 21.69 22.484 5.856 8.329 8.906 19.219 9.144 32.672 0 19.088-8.367 36-25.099 50.734-17.353 15.247-42.392 23.126-75.112 23.64-27.391-.259-47.844-6.141-61.351-17.649C6.814 271.595-.005 258.744-.005 243.784c0-7.291 2.217-15.41 6.652-24.362 4.303-8.954 12.095-16.819 23.373-23.592 12.667-7.291 25.972-12.149 39.91-14.579 13.805-2.049 25.27-3.196 34.395-3.453a84.066 84.066 0 0 1-7.538-11.981c-2.575-4.121-3.86-9.082-3.86-14.88 0-3.476.488-6.377 1.47-8.695.857-2.448 1.654-4.7 2.39-6.759-4.445.513-8.632.768-12.565.768-20.817-.255-36.685-6.852-47.599-19.792-11.425-12.041-17.136-26.067-17.136-42.08 0-19.345 8.093-36.892 24.28-52.652C54.884 12.506 66.436 6.485 78.421 3.665c11.862-2.431 22.982-3.65 33.361-3.65h78.208l-24.154 14.203h-24.115zM90.897 189.311c-8.095 1.152-16.374 3.008-24.839 5.572-1.995.77-4.796 1.922-8.405 3.462-3.613 1.664-7.285 4.037-11.02 7.111-3.612 3.2-6.661 7.174-9.152 11.917-2.865 4.998-4.295 11.019-4.295 18.068 0 13.838 6.222 25.242 18.676 34.215 11.828 8.969 28.016 13.582 48.561 13.84 18.429-.258 32.499-4.358 42.211-12.303 9.462-7.819 14.195-17.879 14.195-30.178 0-9.995-3.24-18.71-9.713-26.139-6.849-7.051-17.555-15.698-32.125-25.95-2.49-.259-5.415-.384-8.776-.384-1.995-.258-7.1 0-15.318.769zm32.547-150.635c-3.698-7.574-8.565-13.736-14.604-18.486-6.164-4.492-13.249-6.868-21.261-7.126-10.597.258-19.411 4.559-26.434 12.903-5.924 8.732-8.758 18.489-8.503 29.269 0 14.25 4.137 29.081 12.417 44.485 4.006 7.191 9.18 13.288 15.517 18.293 6.336 5.01 13.579 7.51 21.728 7.51 10.294-.384 18.872-4.107 25.736-11.17 3.309-5.006 5.437-10.139 6.382-15.404.567-5.261.853-9.69.853-13.286 0-15.534-3.944-31.196-11.831-46.988z"/></symbol><symbol id="hatena" viewBox="0 0 355.004 300"><path class="fill" d="M280.009 0h70v200.005h-70V0zM215.192 160.596c-11.844-13.239-28.314-20.683-49.443-22.288 18.795-5.122 32.443-12.616 41.077-22.628 8.593-9.88 12.856-23.292 12.856-40.171 0-13.362-2.922-25.184-8.579-35.397-5.805-10.152-14.14-18.276-25.102-24.357-9.586-5.274-20.98-8.994-34.262-11.188-13.349-2.126-36.709-3.198-70.231-3.198H0V298.63h83.976c33.737 0 58.064-1.182 72.94-3.441 14.863-2.337 27.334-6.27 37.428-11.662 12.484-6.587 22.007-15.964 28.662-28.01 6.698-12.085 10.014-26.02 10.014-41.956-.003-22.047-5.941-39.763-17.828-52.965zM75.26 67.27h17.398c20.108 0 33.617 2.267 40.59 6.787 6.877 4.542 10.388 12.38 10.388 23.547 0 10.745-3.733 18.313-11.118 22.751-7.483 4.354-21.117 6.562-41.079 6.562H75.26V67.27zm69.016 170.463c-7.916 4.862-21.557 7.251-40.696 7.251H75.265v-64.949h29.54c19.654 0 33.243 2.475 40.469 7.414 7.343 4.942 10.955 13.665 10.955 26.191-.003 11.21-3.966 19.259-11.953 24.093zM315.014 220.003c-22.101 0-40.002 17.891-40.002 39.991S292.914 300 315.014 300c22.072 0 39.99-17.906 39.99-40.006s-17.916-39.991-39.99-39.991z"/></symbol><symbol id="hatena_icon" viewBox="0 0 300 300"><path class="fill_3" d="M255.882 0H44.118C19.752 0 0 19.752 0 44.118v211.764C0 280.248 19.752 300 44.118 300h211.764C280.248 300 300 280.248 300 255.882V44.118C300 19.752 280.248 0 255.882 0z"/><path class="fill_2" d="M0 150v105.882C0 280.248 19.752 300 44.118 300h211.764C280.248 300 300 280.248 300 255.882V150H0z"/><path class="fill_1" d="M194.123 83.824h30.883v88.238h-30.883V83.824zM165.527 154.676c-5.225-5.841-12.492-9.125-21.813-9.833 8.292-2.26 14.313-5.566 18.122-9.983 3.791-4.359 5.672-10.276 5.672-17.723 0-5.895-1.289-11.11-3.785-15.616-2.561-4.479-6.238-8.063-11.074-10.746-4.229-2.327-9.256-3.968-15.116-4.936-5.889-.938-16.195-1.411-30.984-1.411h-35.96v131.145h37.048c14.884 0 25.617-.521 32.18-1.518 6.557-1.031 12.059-2.766 16.512-5.145 5.508-2.906 9.709-7.043 12.645-12.357 2.955-5.332 4.418-11.48 4.418-18.51-.001-9.727-2.621-17.543-7.865-23.367zm-61.735-41.174h7.676c8.871 0 14.831 1 17.907 2.994 3.034 2.004 4.583 5.462 4.583 10.389 0 4.74-1.647 8.079-4.905 10.037-3.301 1.921-9.316 2.895-18.123 2.895h-7.138v-26.315zm30.448 75.205c-3.492 2.145-9.51 3.199-17.954 3.199h-12.492v-28.654h13.032c8.671 0 14.666 1.092 17.854 3.271 3.24 2.18 4.833 6.029 4.833 11.555-.001 4.945-1.749 8.496-5.273 10.629z"/><path class="fill_4" d="M209.566 180.885c-9.75 0-17.648 7.893-17.648 17.643s7.898 17.65 17.648 17.65c9.738 0 17.643-7.9 17.643-17.65s-7.904-17.643-17.643-17.643zM159.891 150H70.589v65.572h37.048c14.884 0 25.617-.521 32.18-1.518 6.557-1.031 12.059-2.766 16.512-5.145 5.508-2.906 9.709-7.043 12.645-12.357 2.955-5.332 4.418-11.48 4.418-18.51 0-9.725-2.619-17.541-7.863-23.367-1.654-1.839-3.582-3.339-5.638-4.675zm-25.651 38.707c-3.492 2.145-9.51 3.199-17.954 3.199h-12.492v-28.654h13.032c8.671 0 14.666 1.092 17.854 3.271 3.24 2.18 4.833 6.029 4.833 11.555-.001 4.945-1.749 8.496-5.273 10.629zM194.123 150h30.883v22.063h-30.883V150z"/></symbol><symbol id="line" viewBox="0 0 315 300"><path class="fill_1" d="M280.344 206.351h.01c-32.935 38.024-106.59 84.335-123.348 91.413-16.755 7.08-14.282-4.506-13.597-8.478.4-2.377 2.239-13.491 2.239-13.491.531-4.022 1.077-10.252-.509-14.222-1.765-4.376-8.721-6.671-13.832-7.769C55.86 243.805.004 190.897.004 127.748.004 57.307 70.443-.006 157.006-.006c86.573 0 156.998 57.313 156.998 127.754 0 28.198-10.896 53.594-33.66 78.603z"/><path class="fill_2" d="M253.185 121.872c4.537 0 8.223 3.697 8.223 8.257 0 4.545-3.686 8.252-8.223 8.252h-22.936v14.765h22.936c4.525 0 8.223 3.705 8.223 8.252 0 4.562-3.698 8.262-8.223 8.262h-31.167c-4.527 0-8.223-3.7-8.223-8.262v-31.249-.02-.02-31.231-.037c0-4.545 3.691-8.258 8.223-8.258h31.167c4.537 0 8.223 3.713 8.223 8.258 0 4.557-3.686 8.262-8.223 8.262h-22.936v14.769h22.936zm-50.426 39.526a8.233 8.233 0 0 1-8.233 8.262 8.221 8.221 0 0 1-6.57-3.306l-31.944-43.649v38.693c0 4.562-3.683 8.262-8.221 8.262-4.535 0-8.226-3.7-8.226-8.262V98.841a8.256 8.256 0 0 1 5.627-7.831 8.28 8.28 0 0 1 2.607-.427 8.219 8.219 0 0 1 6.567 3.311l31.944 43.665V98.841c0-4.545 3.69-8.258 8.226-8.258 4.537 0 8.223 3.713 8.223 8.258v62.557zm-75.022 0c0 4.562-3.686 8.262-8.218 8.262-4.533 0-8.219-3.7-8.219-8.262V98.841c0-4.545 3.686-8.258 8.219-8.258 4.532 0 8.218 3.713 8.218 8.258v62.557zm-32.23 8.262H64.343c-4.527 0-8.216-3.7-8.216-8.262V98.841c0-4.545 3.689-8.258 8.216-8.258 4.538 0 8.221 3.713 8.221 8.258v54.305h22.943c4.54 0 8.221 3.705 8.221 8.252 0 4.562-3.681 8.262-8.221 8.262z"/></symbol><symbol id="line_a" viewBox="0 0 315 300"><path class="fill" d="M280.344 206.351h.01c-32.935 38.024-106.59 84.335-123.348 91.413-16.755 7.08-14.282-4.506-13.597-8.478.4-2.377 2.239-13.491 2.239-13.491.531-4.022 1.077-10.252-.509-14.222-1.765-4.376-8.721-6.671-13.832-7.769C55.86 243.805.004 190.897.004 127.748.004 57.307 70.443-.006 157.006-.006c86.573 0 156.998 57.313 156.998 127.754 0 28.198-10.896 53.594-33.66 78.603zM95.547 153.146H72.581V98.841c0-4.545-3.687-8.258-8.229-8.258-4.533 0-8.225 3.713-8.225 8.258v62.557c0 4.562 3.692 8.262 8.225 8.262h31.195c4.545 0 8.23-3.7 8.23-8.262 0-4.547-3.685-8.252-8.23-8.252zm32.263-54.305c0-4.545-3.69-8.258-8.227-8.258-4.537 0-8.227 3.713-8.227 8.258v62.557c0 4.562 3.69 8.262 8.227 8.262 4.537 0 8.227-3.7 8.227-8.262V98.841zm75.098 0c0-4.545-3.689-8.258-8.232-8.258-4.539 0-8.234 3.713-8.234 8.258v38.718l-31.976-43.665a8.23 8.23 0 0 0-6.574-3.311 8.257 8.257 0 0 0-8.242 8.258v62.557c0 4.562 3.695 8.262 8.235 8.262 4.542 0 8.229-3.7 8.229-8.262v-38.693l31.976 43.649a8.231 8.231 0 0 0 6.577 3.306 8.234 8.234 0 0 0 8.241-8.262V98.841zm50.477 39.54c4.542 0 8.232-3.707 8.232-8.252 0-4.56-3.69-8.257-8.232-8.257h-22.959v-14.769h22.959c4.542 0 8.232-3.705 8.232-8.262 0-4.545-3.69-8.258-8.232-8.258h-31.198c-4.537 0-8.232 3.713-8.232 8.258v62.557c0 4.562 3.7 8.262 8.232 8.262h31.198c4.53 0 8.232-3.7 8.232-8.262 0-4.547-3.702-8.252-8.232-8.252h-22.959v-14.765h22.959z"/></symbol><symbol id="line_icon" viewBox="0 0 300 300"><path class="fill_1" d="M245.741 0H54.679C24.677-.042.043 24.249 0 54.257v191.057c-.042 30.01 24.255 54.645 54.258 54.686H245.32c30.01.042 54.637-24.249 54.68-54.265l-.001-191.06C300.041 24.671 275.749.041 245.741 0z"/><path class="fill_2" d="M259.877 136.778c0-48.99-49.115-88.846-109.482-88.846-60.365 0-109.482 39.856-109.482 88.846 0 43.917 38.949 80.702 91.563 87.659 3.563.769 8.416 2.354 9.644 5.4 1.104 2.766.724 7.1.354 9.896 0 0-1.279 7.727-1.562 9.375-.476 2.767-2.201 10.823 9.483 5.901 11.686-4.922 63.047-37.127 86.016-63.568h-.005c15.867-17.396 23.471-35.056 23.471-54.663zm-152.34 29.147H85.785a5.748 5.748 0 0 1-5.74-5.744v-43.505a5.747 5.747 0 0 1 5.74-5.741 5.746 5.746 0 0 1 5.739 5.741v37.764h16.013a5.746 5.746 0 0 1 5.741 5.742 5.746 5.746 0 0 1-5.741 5.743zm22.5-5.743c0 3.168-2.575 5.744-5.737 5.744a5.747 5.747 0 0 1-5.739-5.744v-43.505a5.747 5.747 0 0 1 5.739-5.741 5.747 5.747 0 0 1 5.737 5.741v43.505zm52.365 0a5.72 5.72 0 0 1-3.924 5.446 5.742 5.742 0 0 1-1.824.298 5.767 5.767 0 0 1-4.587-2.298l-22.293-30.359v26.914a5.747 5.747 0 0 1-5.741 5.744 5.748 5.748 0 0 1-5.742-5.744v-43.505a5.736 5.736 0 0 1 5.747-5.741c1.791 0 3.509.856 4.584 2.295l22.3 30.362v-26.917a5.749 5.749 0 0 1 5.74-5.741 5.745 5.745 0 0 1 5.739 5.741v43.505zm35.2-27.494a5.747 5.747 0 0 1 5.742 5.743 5.746 5.746 0 0 1-5.742 5.739h-16.008v10.27h16.008a5.75 5.75 0 0 1 5.742 5.742 5.75 5.75 0 0 1-5.742 5.744h-21.754a5.75 5.75 0 0 1-5.74-5.744v-21.738-21.768a5.747 5.747 0 0 1 5.74-5.741h21.754a5.747 5.747 0 0 1 5.742 5.741 5.746 5.746 0 0 1-5.742 5.741h-16.008v10.271h16.008z"/></symbol><symbol id="twitter" viewBox="0 0 350 300"><path class="fill" d="M350.001 35.509c-3.975 6.658-9.352 13.688-16.131 21.086-5.377 5.918-11.926 11.961-19.639 18.125V79.53c0 1.232.115 2.096.348 2.589v2.589c0 25.401-4.557 50.864-13.676 76.389-9.118 25.523-22.094 48.397-38.928 68.618-18.004 21.702-39.862 38.841-65.581 51.419-25.72 12.577-54.477 18.865-86.272 18.865-20.576 0-39.98-2.958-58.218-8.877-18.703-5.92-36.005-14.304-51.905-25.155.937.247 2.338.371 4.209.371 3.74.493 6.547.739 8.418.739h4.557c16.367 0 32.384-2.835 48.048-8.508 14.496-5.425 28.172-13.316 41.032-23.674-14.963-.246-28.876-5.426-41.732-15.538-12.627-9.863-21.045-22.317-25.252-37.36 3.507.74 5.728 1.108 6.664 1.108h3.504c.704.247 1.755.371 3.158.371 2.103 0 3.741-.124 4.911-.371 2.337 0 5.612-.493 9.819-1.479.466 0 1.17-.124 2.104-.37.937-.247 1.636-.369 2.103-.369-16.601-3.453-30.277-12.208-41.033-26.265-10.989-14.057-16.48-30.086-16.48-48.088v-.371-.369-.37c4.442 2.959 9.586 5.179 15.431 6.658 6.078 1.972 11.805 2.96 17.184 2.96-10.29-7.398-18.004-16.4-23.147-27.004-5.846-10.851-8.768-22.936-8.768-36.252 0-7.398.817-14.057 2.454-19.976.937-4.193 3.274-10.234 7.015-18.125 18.237 23.673 39.979 42.169 65.231 55.487 25.953 14.303 53.54 22.194 82.766 23.675-.701-5.18-1.05-8.015-1.05-8.508-.471-3.453-.704-6.288-.704-8.509 0-20.962 7.015-38.841 21.042-53.637C205.512 7.396 222.462-.002 242.337-.002c10.286 0 19.988 2.096 29.107 6.288 9.118 4.685 16.95 10.605 23.498 17.756 7.481-1.727 15.43-4.192 23.846-7.398 7.015-2.713 14.263-6.412 21.744-11.097-2.803 8.877-6.898 16.892-12.272 24.044-6.081 7.398-12.509 13.316-19.291 17.756a319.095 319.095 0 0 0 21.041-4.44c5.378-1.479 12.042-3.946 19.991-7.398z"/></symbol><symbol id="wordpress-logo-simplified" viewBox="0 0 189 189"><title>WordPress Logo Simplified</title><path d="M94.5 0A94.5 94.5 0 1 0 189 94.5 94.61 94.61 0 0 0 94.5 0zm-85 94.5a84.63 84.63 0 0 1 7.36-34.58L57.42 171A85 85 0 0 1 9.54 94.5zm85 85a84.93 84.93 0 0 1-24-3.46L96 101.93l26.11 71.55a7.94 7.94 0 0 0 .61 1.17 84.8 84.8 0 0 1-28.22 4.82zm11.71-124.8c5.11-.27 9.72-.81 9.72-.81 4.58-.54 4-7.27-.54-7 0 0-13.76 1.08-22.65 1.08-8.35 0-22.38-1.08-22.38-1.08-4.58-.27-5.12 6.73-.54 7 0 0 4.33.54 8.91.81L92 90.93l-18.6 55.76-30.94-92c5.12-.27 9.72-.81 9.72-.81 4.58-.54 4-7.27-.54-7 0 0-13.76 1.08-22.64 1.08-1.59 0-3.47 0-5.47-.1a84.94 84.94 0 0 1 128.36-16c-.37 0-.72-.07-1.1-.07-8.35 0-14.27 7.27-14.27 15.08 0 7 4 12.93 8.35 19.93 3.23 5.66 7 12.93 7 23.43 0 7.27-2.8 15.71-6.46 27.47l-8.5 28.3zm62.85-.93a85 85 0 0 1-31.84 114.2l26-75c4.85-12.12 6.46-21.81 6.46-30.43a65.19 65.19 0 0 0-.63-8.8z" data-name="WordPress Logo Simplified"/></symbol></svg>