<svg xmlns="http://www.w3.org/2000/svg" viewBox="0 0 189 189"><title>WordPress Logo Simplified</title><g data-name="WordPress Logo Simplified"><g><path d="M94.5,0A94.5,94.5,0,1,0,189,94.5,94.61,94.61,0,0,0,94.5,0Zm-85,94.5a84.63,84.63,0,0,1,7.36-34.58L57.42,171A85,85,0,0,1,9.54,94.5Zm85,85a84.93,84.93,0,0,1-24-3.46L96,101.93l26.11,71.55a7.94,7.94,0,0,0,.61,1.17A84.8,84.8,0,0,1,94.5,179.47Zm11.71-124.8c5.11-.27,9.72-.81,9.72-.81,4.58-.54,4-7.27-.54-7,0,0-13.76,1.08-22.65,1.08-8.35,0-22.38-1.08-22.38-1.08-4.58-.27-5.12,6.73-.54,7,0,0,4.33.54,8.91.81L92,90.93l-18.6,55.76-30.94-92c5.12-.27,9.72-.81,9.72-.81,4.58-.54,4-7.27-.54-7,0,0-13.76,1.08-22.64,1.08-1.59,0-3.47,0-5.47-.1a84.94,84.94,0,0,1,128.36-16c-.37,0-.72-.07-1.1-.07-8.35,0-14.27,7.27-14.27,15.08,0,7,4,12.93,8.35,19.93,3.23,5.66,7,12.93,7,23.43,0,7.27-2.8,15.71-6.46,27.47L136.91,146Zm62.85-.93a85,85,0,0,1-31.84,114.2l26-75c4.85-12.12,6.46-21.81,6.46-30.43A65.19,65.19,0,0,0,169.05,53.74Z"/></g></g></svg>